<svg width="70" height="156" viewBox="0 0 70 156" fill="none" xmlns="http://www.w3.org/2000/svg">
<path d="M37.7461 0.7499L69.2124 9.11791L37.4362 107.206L16.3877 101.609L37.7461 0.7499ZM13.505 155.249C8.54413 153.93 4.8483 151.278 2.41753 147.293C0.0244648 143.166 -0.550123 138.763 0.69377 134.086C1.93766 129.409 4.60425 125.944 8.69354 123.693C12.7828 121.442 17.3079 120.976 22.2688 122.295C27.088 123.576 30.6421 126.191 32.9311 130.139C35.3619 134.124 35.9553 138.455 34.7114 143.133C33.4675 147.81 30.7821 151.345 26.6551 153.738C22.7076 156.027 18.3242 156.531 13.505 155.249Z" fill="#7FF56B"/>
</svg>
