<svg width="64" height="56" viewBox="0 0 64 56" fill="none" xmlns="http://www.w3.org/2000/svg">
<path d="M21.0742 24.1099C22.67 25.6595 23.6446 27.512 23.998 29.6674C24.4722 31.7709 24.2467 33.9946 23.3216 36.3387C22.0881 39.4641 20.0819 41.6236 17.3031 42.8171C14.5243 44.0107 11.6635 44.0139 8.72065 42.8266C5.6047 41.5694 3.44539 39.5408 2.24271 36.7409C1.04002 33.9409 1.05543 30.9782 2.28892 27.8528C2.90567 26.2901 3.67839 24.8407 4.60709 23.5045C5.62235 22.2032 7.27506 20.3037 9.56523 17.8059L23.7445 2.0902L34.131 6.28073L21.0742 24.1099ZM48.5984 35.2148C50.1942 36.7644 51.1688 38.6169 51.5222 40.7723C51.9964 42.8758 51.7709 45.0995 50.8458 47.4436C49.6123 50.569 47.6062 52.7285 44.8274 53.9221C42.0486 55.1157 39.1877 55.1188 36.2449 53.9315C33.1289 52.6743 30.9696 50.6458 29.7669 47.8458C28.5643 45.0458 28.5797 42.0831 29.8132 38.9577C30.4299 37.3951 31.2026 35.9456 32.1313 34.6094C33.1466 33.3081 34.7993 31.4086 37.0895 28.9108L51.2687 13.1951L61.6552 17.3856L48.5984 35.2148Z" fill="black"/>
<path d="M21.0742 24.1099L20.2698 23.5126L19.7535 24.2176L20.3833 24.8291L21.0742 24.1099ZM23.998 29.6674L23.0139 29.8251L23.0187 29.8546L23.0253 29.8838L23.998 29.6674ZM17.3031 42.8171L17.6993 43.7394L17.3031 42.8171ZM2.24271 36.7409L1.32737 37.134L2.24271 36.7409ZM4.60709 23.5045L3.821 22.8831L3.80412 22.9047L3.78846 22.9272L4.60709 23.5045ZM9.56523 17.8059L10.3004 18.4876L10.3057 18.4817L9.56523 17.8059ZM23.7445 2.0902L24.1116 1.16002L23.4678 0.900305L23.004 1.4144L23.7445 2.0902ZM34.131 6.28074L34.9353 6.878L35.6991 5.83511L34.4981 5.35056L34.131 6.28074ZM48.5984 35.2148L47.7941 34.6175L47.2778 35.3225L47.9075 35.934L48.5984 35.2148ZM51.5222 40.7723L50.5381 40.93L50.543 40.9595L50.5495 40.9887L51.5222 40.7723ZM44.8274 53.9221L45.2235 54.8444L44.8274 53.9221ZM29.7669 47.8458L28.8516 48.239L29.7669 47.8458ZM32.1313 34.6094L31.3452 33.988L31.3284 34.0096L31.3127 34.0321L32.1313 34.6094ZM37.0895 28.9108L37.8246 29.5925L37.8299 29.5866L37.0895 28.9108ZM51.2687 13.1951L51.6358 12.2649L50.9921 12.0052L50.5282 12.5193L51.2687 13.1951ZM61.6552 17.3857L62.4595 17.9829L63.2233 16.94L62.0223 16.4555L61.6552 17.3857ZM20.3833 24.8291C21.827 26.231 22.6963 27.8878 23.0139 29.8251L24.9821 29.5096C24.5929 27.1361 23.513 25.0879 21.7651 23.3906L20.3833 24.8291ZM23.0253 29.8838C23.4478 31.7578 23.2585 33.7747 22.3942 35.9645L24.249 36.7128C25.235 34.2145 25.4966 31.7839 24.9706 29.4509L23.0253 29.8838ZM22.3942 35.9645C21.2467 38.8721 19.416 40.8171 16.907 41.8948L17.6993 43.7394C20.7479 42.43 22.9295 40.056 24.249 36.7128L22.3942 35.9645ZM16.907 41.8948C14.3829 42.979 11.7971 42.9895 9.08777 41.8964L8.35354 43.7567C11.5299 45.0383 14.6657 45.0425 17.6993 43.7394L16.907 41.8948ZM9.08777 41.8964C6.18896 40.7268 4.24396 38.8758 3.15804 36.3477L1.32737 37.134C2.64682 40.2058 5.02044 42.412 8.35354 43.7567L9.08777 41.8964ZM3.15804 36.3477C2.07212 33.8196 2.06876 31.1346 3.21629 28.227L1.36156 27.4787C0.0421028 30.8219 0.00792753 34.0622 1.32737 37.134L3.15804 36.3477ZM3.21629 28.227C3.8056 26.7338 4.54229 25.3528 5.42573 24.0817L3.78846 22.9272C2.81449 24.3286 2.00574 25.8465 1.36156 27.4787L3.21629 28.227ZM5.39319 24.1259C6.38299 22.8573 8.01353 20.9817 10.3003 18.4876L8.83013 17.1242C6.53659 19.6257 4.86171 21.5492 3.821 22.8831L5.39319 24.1259ZM10.3057 18.4817L24.4849 2.766L23.004 1.4144L8.82478 17.1301L10.3057 18.4817ZM23.3773 3.02038L33.7638 7.21091L34.4981 5.35056L24.1116 1.16002L23.3773 3.02038ZM33.3266 5.68347L20.2698 23.5126L21.8785 24.7071L34.9353 6.878L33.3266 5.68347ZM47.9075 35.934C49.3512 37.336 50.2205 38.9927 50.5381 40.93L52.5063 40.6145C52.1172 38.2411 51.0372 36.1928 49.2893 34.4955L47.9075 35.934ZM50.5495 40.9887C50.972 42.8627 50.7827 44.8796 49.9185 47.0694L51.7732 47.8177C52.7592 45.3194 53.0208 42.8889 52.4949 40.5558L50.5495 40.9887ZM49.9185 47.0694C48.7709 49.977 46.9402 51.9221 44.4312 52.9998L45.2235 54.8444C48.2721 53.5349 50.4537 51.1609 51.7732 47.8177L49.9185 47.0694ZM44.4312 52.9998C41.9071 54.0839 39.3213 54.0944 36.612 53.0013L35.8778 54.8617C39.0542 56.1432 42.19 56.1474 45.2235 54.8444L44.4312 52.9998ZM36.612 53.0013C33.7132 51.8317 31.7682 49.9807 30.6823 47.4526L28.8516 48.239C30.171 51.3108 32.5447 53.5169 35.8778 54.8617L36.612 53.0013ZM30.6823 47.4526C29.5964 44.9245 29.593 42.2395 30.7405 39.3319L28.8858 38.5836C27.5663 41.9268 27.5322 45.1671 28.8516 48.239L30.6823 47.4526ZM30.7405 39.3319C31.3298 37.8387 32.0665 36.4577 32.95 35.1867L31.3127 34.0321C30.3387 35.4335 29.53 36.9514 28.8858 38.5836L30.7405 39.3319ZM32.9174 35.2308C33.9072 33.9622 35.5378 32.0866 37.8246 29.5925L36.3544 28.2291C34.0608 30.7306 32.3859 32.6541 31.3452 33.988L32.9174 35.2308ZM37.8299 29.5866L52.0091 13.8709L50.5282 12.5193L36.349 28.235L37.8299 29.5866ZM50.9016 14.1253L61.2881 18.3158L62.0223 16.4555L51.6358 12.2649L50.9016 14.1253ZM60.8508 16.7884L47.7941 34.6175L49.4028 35.812L62.4595 17.9829L60.8508 16.7884Z" fill="black"/>
</svg>
