<svg width="278" height="262" viewBox="0 0 278 262" fill="none" xmlns="http://www.w3.org/2000/svg">
<path d="M128.27 84.3905L130.278 86.5686L131.547 83.892L166.412 10.3861L163.721 87.2645L163.599 90.7481L166.668 89.0954L240.794 49.1787L186.271 111.42L183.847 114.186L187.487 114.717L266.573 126.244L185.128 145.411L182.012 146.144L184.038 148.623L231.624 206.859L161.039 173.19L158.447 171.954L158.186 174.813L151.07 252.693L125.317 182.034L124.221 179.026L121.998 181.331L63.9143 241.554L94.4068 167.678L95.81 164.278L92.1937 164.948L10.8338 180.023L83.0168 136.692L86.0053 134.898L82.9484 133.223L15.4841 96.2623L96.4855 103.842L99.4351 104.118L98.5885 101.279L76.9496 28.7213L128.27 84.3905Z" stroke="#7FF56B" stroke-width="4"/>
</svg>
