<svg width="390" height="354" viewBox="0 0 390 354" fill="none" xmlns="http://www.w3.org/2000/svg">
<path d="M192.091 2.57367C192.851 -0.451122 197.149 -0.451135 197.909 2.57366L224.296 107.539C224.78 109.462 226.962 110.395 228.686 109.417L329.76 52.0663C332.544 50.4867 335.536 53.7817 333.695 56.4005L270.686 146.059C269.442 147.829 270.423 150.294 272.543 150.724L387.515 174.06C390.719 174.71 390.719 179.29 387.515 179.94L272.543 203.276C270.423 203.706 269.442 206.171 270.686 207.941L333.695 297.599C335.536 300.218 332.544 303.513 329.76 301.934L228.686 244.583C226.962 243.605 224.78 244.538 224.296 246.461L197.909 351.426C197.149 354.451 192.851 354.451 192.091 351.426L165.704 246.461C165.22 244.538 163.038 243.605 161.314 244.583L60.2398 301.934C57.4559 303.513 54.4644 300.218 56.3048 297.599L119.314 207.941C120.558 206.171 119.577 203.706 117.457 203.276L2.48523 179.94C-0.719122 179.29 -0.719109 174.71 2.48524 174.06L117.457 150.724C119.577 150.294 120.558 147.829 119.314 146.059L56.3048 56.4005C54.4644 53.7816 57.4559 50.4867 60.2398 52.0663L161.314 109.417C163.038 110.395 165.22 109.462 165.704 107.539L192.091 2.57367Z" fill="#7FF56B"/>
</svg>
