<svg width="118" height="119" viewBox="0 0 118 119" fill="none" xmlns="http://www.w3.org/2000/svg">
<path d="M69.6793 49.1411L68.8875 51.5274L71.3635 51.0907L92.3677 47.386L74.1251 59.1823L72.107 60.4872L74.1658 61.7269L92.3432 72.672L71.1559 69.9751L68.8095 69.6764L69.5398 71.9262L76.1964 92.4322L62.1677 76.5279L60.5391 74.6816L59.6452 76.9755L51.7375 97.2665L51.3116 75.7493L51.2614 73.2148L49.064 74.4787L30.4084 85.209L43.7162 67.9708L45.2206 66.022L42.7989 65.5787L21.9383 61.7598L42.9403 56.8894L45.2445 56.3551L43.7787 54.4986L30.5429 37.7359L49.2937 47.6666L51.4175 48.7914L51.495 46.3894L52.1953 24.6764L59.8519 44.5831L60.7544 46.9297L62.3907 45.0208L76.512 28.5477L69.6793 49.1411Z" fill="white" stroke="black" stroke-width="3"/>
</svg>
