<svg width="855" height="683" viewBox="0 0 855 683" fill="none" xmlns="http://www.w3.org/2000/svg">
<rect x="173.809" y="254.061" width="678.691" height="425.587" rx="42.5" fill="white" stroke="#7FF56B" stroke-width="5"/>
<rect x="2.5" y="2.5" width="678.691" height="425.587" rx="42.5" fill="white" stroke="black" stroke-width="5"/>
<rect x="683.691" y="316.381" width="167.45" height="60.9612" fill="#F272BF"/>
<circle cx="584.533" cy="50.5438" r="19.6773" fill="#F272BF"/>
<circle cx="611.541" cy="50.5438" r="18.1773" fill="white" stroke="#7FF56B" stroke-width="3"/>
<path d="M455.37 33.5L438.595 72H431.555L414.725 33.5H422.48L435.295 63.2L448.22 33.5H455.37ZM460.533 33.5H467.683V72H460.533V33.5ZM491.131 72.55C488.161 72.55 485.283 72.1283 482.496 71.285C479.746 70.4417 477.565 69.3233 475.951 67.93L478.426 62.375C480.003 63.6217 481.928 64.6483 484.201 65.455C486.511 66.225 488.821 66.61 491.131 66.61C493.991 66.61 496.118 66.1517 497.511 65.235C498.941 64.3183 499.656 63.1083 499.656 61.605C499.656 60.505 499.253 59.6067 498.446 58.91C497.676 58.1767 496.686 57.6083 495.476 57.205C494.266 56.8017 492.616 56.3433 490.526 55.83C487.593 55.1333 485.21 54.4367 483.376 53.74C481.58 53.0433 480.021 51.9617 478.701 50.495C477.418 48.9917 476.776 46.975 476.776 44.445C476.776 42.3183 477.345 40.3933 478.481 38.67C479.655 36.91 481.396 35.5167 483.706 34.49C486.053 33.4633 488.913 32.95 492.286 32.95C494.633 32.95 496.943 33.2433 499.216 33.83C501.49 34.4167 503.451 35.26 505.101 36.36L502.846 41.915C501.16 40.925 499.4 40.1733 497.566 39.66C495.733 39.1467 493.955 38.89 492.231 38.89C489.408 38.89 487.3 39.3667 485.906 40.32C484.55 41.2733 483.871 42.5383 483.871 44.115C483.871 45.215 484.256 46.1133 485.026 46.81C485.833 47.5067 486.841 48.0567 488.051 48.46C489.261 48.8633 490.911 49.3217 493.001 49.835C495.861 50.495 498.208 51.1917 500.041 51.925C501.875 52.6217 503.433 53.7033 504.716 55.17C506.036 56.6367 506.696 58.6167 506.696 61.11C506.696 63.2367 506.11 65.1617 504.936 66.885C503.8 68.6083 502.058 69.9833 499.711 71.01C497.365 72.0367 494.505 72.55 491.131 72.55ZM539.856 63.09H520.606L516.811 72H509.441L526.766 33.5H533.806L551.186 72H543.706L539.856 63.09ZM537.491 57.48L530.231 40.65L523.026 57.48H537.491Z" fill="#7FF56B"/>
</svg>
