<svg width="641" height="130" viewBox="0 0 641 130" fill="none" xmlns="http://www.w3.org/2000/svg">
<path d="M638.892 63.7735C638.909 67.7432 636.905 71.7431 632.817 75.7408C628.728 79.7398 622.631 83.6547 614.677 87.4231C598.773 94.9574 575.658 101.807 546.944 107.61C489.534 119.212 409.951 126.589 321.438 126.977C232.924 127.365 152.786 120.689 94.7824 109.593C65.7721 104.043 42.35 97.3973 26.1951 90.0026C18.1148 86.304 11.907 82.4423 7.72895 78.4784C3.55159 74.5151 1.48711 70.5342 1.46972 66.5696C1.45233 62.6051 3.48181 58.6062 7.62423 54.6065C11.7673 50.6061 17.9411 46.69 25.9886 42.9206C42.078 35.3845 65.4409 28.5333 94.4013 22.7292C152.306 11.1244 232.382 3.74566 320.895 3.35739C409.409 2.96912 489.053 9.64725 546.563 20.7455C575.327 26.2962 598.501 32.9429 614.47 40.3374C622.458 44.0358 628.588 47.8971 632.713 51.8601C636.836 55.8217 638.874 59.8039 638.892 63.7735Z" stroke="black" stroke-width="2"/>
</svg>
