<svg width="81" height="71" viewBox="0 0 81 71" fill="none" xmlns="http://www.w3.org/2000/svg">
<path d="M26.6795 30.0651C28.7312 32.0466 29.981 34.4188 30.429 37.1816C31.0329 39.8773 30.7344 42.7299 29.5336 45.7391C27.9325 49.7515 25.3388 52.5279 21.7524 54.0684C18.1661 55.609 14.4782 55.6232 10.6887 54.111C6.67637 52.51 3.89994 49.9162 2.35941 46.3299C0.818881 42.7435 0.849159 38.9442 2.45024 34.9318C3.25079 32.9256 4.252 31.0641 5.45389 29.3473C6.76722 27.675 8.90441 25.2332 11.8655 22.0219L30.1991 1.8179L43.5736 7.15485L26.6795 30.0651ZM62.1219 44.208C64.1736 46.1895 65.4234 48.5617 65.8714 51.3245C66.4753 54.0203 66.1768 56.8728 64.976 59.8821C63.3749 63.8944 60.7812 66.6708 57.1948 68.2114C53.6085 69.7519 49.9206 69.7661 46.1311 68.254C42.1188 66.6529 39.3423 64.0591 37.8018 60.4728C36.2613 56.8864 36.2916 53.0871 37.8926 49.0747C38.6932 47.0686 39.6944 45.2071 40.8963 43.4902C42.2096 41.8179 44.3468 39.3761 47.3078 36.1648L65.6415 15.9608L79.016 21.2978L62.1219 44.208Z" fill="black"/>
<path d="M26.6795 30.0651L25.8746 29.4716L25.355 30.1762L25.9848 30.7844L26.6795 30.0651ZM30.429 37.1815L29.4419 37.3416L29.4466 37.371L29.4532 37.4001L30.429 37.1815ZM2.35941 46.3299L1.44059 46.7246L2.35941 46.3299ZM5.45389 29.3473L4.66742 28.7297L4.65044 28.7513L4.63468 28.7738L5.45389 29.3473ZM11.8655 22.0219L12.6006 22.6998L12.606 22.6939L11.8655 22.0219ZM30.1991 1.8179L30.5698 0.889118L29.9251 0.631852L29.4586 1.14591L30.1991 1.8179ZM43.5736 7.15485L44.3785 7.74835L45.1471 6.70604L43.9443 6.22607L43.5736 7.15485ZM62.1219 44.208L61.317 43.6145L60.7974 44.3191L61.4272 44.9273L62.1219 44.208ZM65.8714 51.3245L64.8843 51.4845L64.889 51.514L64.8956 51.5431L65.8714 51.3245ZM40.8963 43.4902L40.1098 42.8726L40.0928 42.8942L40.0771 42.9167L40.8963 43.4902ZM47.3079 36.1648L48.043 36.8427L48.0484 36.8368L47.3079 36.1648ZM65.6415 15.9608L66.0122 15.032L65.3674 14.7748L64.901 15.2888L65.6415 15.9608ZM79.016 21.2978L79.8209 21.8913L80.5895 20.849L79.3866 20.369L79.016 21.2978ZM25.9848 30.7844C27.8844 32.619 29.0292 34.7963 29.4419 37.3416L31.4161 37.0215C30.9329 34.0413 29.578 31.4742 27.3742 29.3458L25.9848 30.7844ZM29.4532 37.4001C30.0058 39.8671 29.7442 42.5133 28.6048 45.3685L30.4624 46.1098C31.7246 42.9465 32.0599 39.8876 31.4048 36.963L29.4532 37.4001ZM28.6048 45.3685C27.0905 49.1634 24.6733 51.7254 21.3577 53.1496L22.1471 54.9873C26.0043 53.3304 28.7745 50.3396 30.4624 46.1098L28.6048 45.3685ZM21.3577 53.1496C18.0271 54.5803 14.6149 54.6011 11.0593 53.1823L10.3181 55.0398C14.3414 56.6453 18.305 56.6376 22.1471 54.9873L21.3577 53.1496ZM11.0593 53.1823C7.26448 51.668 4.70243 49.2507 3.27823 45.9352L1.44059 46.7246C3.09745 50.5817 6.08827 53.352 10.3181 55.0398L11.0593 53.1823ZM3.27823 45.9352C1.85403 42.6196 1.86473 39.0973 3.37903 35.3024L1.52146 34.5612C-0.166409 38.791 -0.216266 42.8674 1.44059 46.7246L3.27823 45.9352ZM3.37903 35.3024C4.15187 33.3657 5.11677 31.5725 6.27309 29.9208L4.63468 28.7738C3.38723 30.5557 2.3497 32.4856 1.52146 34.5612L3.37903 35.3024ZM6.24035 29.9649C7.52807 28.3252 9.64298 25.9074 12.6006 22.6998L11.1303 21.344C8.16585 24.559 6.00637 27.0247 4.66742 28.7297L6.24035 29.9649ZM12.606 22.6939L30.9397 2.4899L29.4586 1.14591L11.1249 21.3499L12.606 22.6939ZM29.8285 2.74669L43.203 8.08364L43.9443 6.22607L30.5698 0.889118L29.8285 2.74669ZM42.7688 6.56136L25.8746 29.4716L27.4843 30.6586L44.3785 7.74835L42.7688 6.56136ZM61.4272 44.9273C63.3268 46.762 64.4716 48.9392 64.8843 51.4845L66.8585 51.1644C66.3753 48.1842 65.0204 45.6171 62.8166 43.4887L61.4272 44.9273ZM64.8956 51.5431C65.4482 54.01 65.1865 56.6562 64.0472 59.5114L65.9048 60.2527C67.167 57.0894 67.5023 54.0305 66.8472 51.1059L64.8956 51.5431ZM64.0472 59.5114C62.5329 63.3063 60.1157 65.8683 56.8001 67.2925L57.5895 69.1302C61.4467 67.4733 64.2169 64.4825 65.9048 60.2527L64.0472 59.5114ZM56.8001 67.2925C53.4695 68.7232 50.0573 68.744 46.5017 67.3252L45.7605 69.1827C49.7838 70.7882 53.7474 70.7806 57.5895 69.1302L56.8001 67.2925ZM46.5017 67.3252C42.7069 65.8109 40.1448 63.3937 38.7206 60.0781L36.883 60.8675C38.5398 64.7246 41.5307 67.4949 45.7605 69.1827L46.5017 67.3252ZM38.7206 60.0781C37.2964 56.7626 37.3071 53.2402 38.8214 49.4454L36.9639 48.7041C35.276 52.9339 35.2261 57.0103 36.883 60.8675L38.7206 60.0781ZM38.8214 49.4454C39.5943 47.5086 40.5592 45.7155 41.7155 44.0637L40.0771 42.9167C38.8296 44.6986 37.7921 46.6285 36.9639 48.7041L38.8214 49.4454ZM41.6828 44.1079C42.9705 42.4681 45.0854 40.0503 48.043 36.8427L46.5727 35.4869C43.6082 38.7019 41.4488 41.1676 40.1098 42.8726L41.6828 44.1079ZM48.0484 36.8368L66.3821 16.6328L64.901 15.2888L46.5673 35.4928L48.0484 36.8368ZM65.2709 16.8896L78.6454 22.2266L79.3866 20.369L66.0122 15.032L65.2709 16.8896ZM78.2112 20.7043L61.317 43.6145L62.9267 44.8015L79.8209 21.8913L78.2112 20.7043Z" fill="black"/>
</svg>
